<svg xmlns="http://www.w3.org/2000/svg" viewBox="0 0 90 90"><title>leftМонтажная область 13</title><g id="MENU"><path d="M7.7492,63.59c.1176-.3861.2256-.7755.3546-1.1578a8.1466,8.1466,0,0,1,3.8169-4.57q13.4828-7.79,26.9471-15.6113c1.11-.6431,2.2042-1.3144,3.3364-1.915a.9939.9939,0,0,0,.6028-1.0792,8.3647,8.3647,0,0,1,2.9937-7.0841,13.41,13.41,0,0,1,1.7325-1.1881,4.9964,4.9964,0,0,0-2.8108-9.291,4.92,4.92,0,0,0-4.6038,3.8516,9.1286,9.1286,0,0,0-.1283,1.15,2.2073,2.2073,0,0,1-2.4268,2.146,2.25,2.25,0,0,1-1.9995-2.496,9.4065,9.4065,0,0,1,18.4989-2.0607,9.28,9.28,0,0,1-4.3312,10.48,4.7288,4.7288,0,0,0-2.5906,4.5147,1.0824,1.0824,0,0,0,.6352,1.0594q15.05,8.694,30.0853,17.4115A8.2573,8.2573,0,0,1,82.14,63.6419a7.8988,7.8988,0,0,1-6.8185,8.9593c-.7476.06-1.5.0921-2.25.0923q-28.4291.0075-56.8581.01A7.9488,7.9488,0,0,1,8.7672,68.66a17.8943,17.8943,0,0,1-1.018-2.5976Zm37.1929,4.6752h5.524q11.8113,0,23.6224.0081a3.5541,3.5541,0,0,0,2.9034-1.2138c1.5066-1.7716.9661-4.1555-1.2406-5.4356q-15.0966-8.757-30.1927-17.5149a1.0044,1.0044,0,0,0-1.1673.0143Q33.5437,50.4334,22.6807,56.7175c-2.8875,1.6732-5.78,3.3372-8.6635,5.0177A3.4715,3.4715,0,0,0,12.18,65.3715a3.413,3.413,0,0,0,3.6162,2.8908Q30.369,68.27,44.9421,68.2648Z"/></g></svg>