<svg xmlns="http://www.w3.org/2000/svg" viewBox="0 0 1081.993 159.5878"><defs><style>.cls-1{font-size:51.0236px;font-family:ArialMT, Arial;}</style></defs><title>leftМонтажная область 12</title><g id="TOP"><path d="M945.98,50.5529c.3338.0762.6658.1616,1.0017.2271a11.3135,11.3135,0,0,1,8.9649,9.594c.1541,1.3772.0958,2.7782.1326,4.1684.0061.227.0009.4544.0009.7456h.6759c2.1862,0,4.3724-.0053,6.5586.0021a2.212,2.212,0,0,1,2.3987,2.2571c.2852,3.35.6037,6.6968.901,10.0456.2871,3.2334.5582,6.4683.8481,9.7015.2882,3.2139.5967,6.4259.886,9.64.2529,2.81.49,5.6209.7377,8.4311.0578.6544.1273,1.3078.2,1.9607a2.1925,2.1925,0,0,1-2.3843,2.6725q-22.2008.001-44.4013,0a2.1657,2.1657,0,0,1-2.3907-2.5622c.2777-3.2148.5932-6.4262.8829-9.64.2515-2.79.4832-5.5826.7339-8.3731.2523-2.81.5226-5.6178.775-8.4275.2508-2.7905.4878-5.5823.7332-8.3733.1557-1.7708.2971-3.5432.48-5.3113a2.1243,2.1243,0,0,1,2.26-2.0189c2.4172-.0113,4.8345-.0033,7.35-.0033,0-.2458-.0086-.4676.0014-.6885a41.35,41.35,0,0,1,.2638-4.9664,11.2738,11.2738,0,0,1,9.4608-8.9638,2.2,2.2,0,0,0,.3741-.1171Zm5.7121,14.71a36.1915,36.1915,0,0,0-.03-4.3968,6.9665,6.9665,0,0,0-6.3311-6.0134,7.0416,7.0416,0,0,0-7.2734,4.6922,9.1136,9.1136,0,0,0-.4243,2.3726c-.07,1.1078-.0176,2.2234-.0176,3.3454Z"/><text class="cls-1" transform="translate(987.2569 100.6623)">1</text><path d="M501.2164,76.2425c3.2432-4.9205,6.3748-9.5049,9.3159-14.234.9016-1.45,1-3.4223,2.8792-4.17a4.4754,4.4754,0,0,1,6.1,3.5506,8.7111,8.7111,0,0,1,.1789,2.2969c-.7415,9.6917-1.5358,19.3784-2.2616,29.0714a42.4274,42.4274,0,0,0-.036,5.6816c.1641,2.7416-.9731,4.7853-2.99,5.0331-2.631.3233-5.24-1.54-5.2639-4.1547-.0384-4.2879.1953-8.5824.4147-12.8677.1135-2.2177.4427-4.422.4057-6.7526-1.33,2.4047-2.6813,4.7949-3.9836,7.2176-1.8929,3.5218-6.0183,3.5732-8.011-.0151-2.1318-3.839-4.1318-7.7673-6.1918-11.6549-.0983-.1856-.2207-.3556-.5995-.96-.3615,4.61-.7188,8.7632-1.0044,12.9221-.2923,4.2575-.5116,8.5211-.7684,12.7817-.101,1.6775-.4479,3.5074-2.0947,3.7795-1.406.2324-3.3206.0912-4.3013-.8182a7.1359,7.1359,0,0,1-1.9424-4.6986c.0223-4.31.55-8.6189.898-12.926q.8169-10.101,1.6708-20.1985c.1361-1.5886.3633-3.1695.6026-4.7439a1.8636,1.8636,0,0,1,.5185-1.0354c1.2221-1.0811,3.9172-.9845,5.3585-.2645,3.1773,1.5872,4.6891,4.6711,6.2434,7.8C497.8728,69.941,499.4932,72.9367,501.2164,76.2425Z"/><path d="M682.0723,75.0639c.0451,4.5929-.2788,9.1761-1.9678,13.4072-1.839,4.6066-4.3755,8.7121-8.47,11.3192-3.2313,2.0572-6.5828,3.9574-10.3184,4.3524a14.999,14.999,0,0,1-12.1188-3.5684c-3.68-3.2027-4.6267-7.1042-4.5752-11.9587a54.3771,54.3771,0,0,1,4.0849-19.7646c2.3967-5.9915,6.4567-10.1095,12.6175-11.0864a34.6024,34.6024,0,0,1,6.1414-.9079,15.9073,15.9073,0,0,1,11.4164,5.5642,13.4471,13.4471,0,0,1,3.1855,8.9407C682.0977,72.5948,682.0723,73.83,682.0723,75.0639ZM651.8931,88.5634c0,.805-.0244,1.611.0041,2.4147.1517,4.2814,1.809,6.1334,5.6723,5.8144,6.8622-.5666,11.9543-4.3308,15.2067-11.0289a27.789,27.789,0,0,0,2.282-10.7182,7.2947,7.2947,0,0,0-1.4992-5.2989,3.23,3.23,0,0,1-.7119-2.4543c.5652-1.35-.1351-1.8346-.9073-1.9678a23.2755,23.2755,0,0,0-6.289-.6358c-4.72.5051-8.5234,2.748-10.3833,7.9914C653.4508,77.8018,651.9269,82.9858,651.8931,88.5634Z"/><path d="M418.894,82.8971c1.5608,1.3456,2.956,2.4213,4.2175,3.6628,2.6421,2.6,5.2558,5.24,7.7985,7.9582a6.8934,6.8934,0,0,1,1.667,5.8905c-.42,2.7911-3.214,3.8153-5.3954,1.8523-1.98-1.782-3.6106-4.0322-5.5461-5.8832-3.69-3.5286-7.4858-6.9211-11.2424-10.3639a5.201,5.201,0,0,0-.7115-.434c-.2095,1.8389-.3673,3.5316-.6,5.2117-.7558,5.4526-1.5169,10.9046-2.3227,16.3484-.3233,2.1845-1.6562,2.9327-3.5981,2.1755a10.0173,10.0173,0,0,1-1.5177-.4479c-3.082-1.828-3.2158-2.4092-2.7314-6.3678,1.0986-8.9786,2.0721-17.9758,3.13-26.9605.13-1.1042.0885-1.6649-1.1556-1.8908-2.12-.385-3.3768-2.2356-3.5461-4.6513-.1831-2.6127.3594-3.6643,2.7416-4.7618,5.7-2.6261,11.4132-5.24,17.6635-5.8272a13.4728,13.4728,0,0,1,8,1.3988,11.4549,11.4549,0,0,1,4.97,5.8513,8.3926,8.3926,0,0,1-.8217,8.38,22.978,22.978,0,0,1-9.1761,7.8676C420.1981,82.163,419.6952,82.46,418.894,82.8971Zm-8.39-7.0255c5.12-1.7241,9.3715-3.8819,12.8048-8.0931a4.7012,4.7012,0,0,0-1.03-.4243c-3.3876-.2519-6.5647.7727-9.7,2.0108a1.035,1.035,0,0,0-.5838.561C411.5058,71.7545,411.066,73.599,410.5039,75.8716Z"/><path d="M532.3362,89.2736c-.7121-.16-1.3294-.3384-1.9573-.43-1.4065-.2054-2.064-1.2244-2.6051-2.5585-.4126-1.0175-.0672-4.69.5838-5.1328a8.5506,8.5506,0,0,1,3.1016-1.3559c1.5542-.2983,1.7453-1.2532,1.756-2.75q.05-7.0307.3758-14.0561a2.7416,2.7416,0,0,1,1.2523-1.9066c4.2938-2.2128,8.9256-2.9015,13.5817-3.4457,2.08-.243,4.154-.5474,6.2294-.8355a6.0953,6.0953,0,0,1,6.0595,3.3844c1.0128,2.0791-1.0622,5.8091-3.4144,6.0339-3.3674.3218-6.7459.507-10.11.8645a40.7031,40.7031,0,0,0-5.2231.98,1.5309,1.5309,0,0,0-.9022,1.1025c-.08,2.6594-.0417,5.323-.0417,8.2225.6822-.0818,1.2945-.1294,1.8991-.2322,3.1834-.5412,6.3758-1.0306,9.5438-1.6664,2.8707-.576,4.8322.8719,6.3583,3.2816,1.2194,1.9253-.7791,5.3131-3.2357,5.7022-4.3541.69-8.6944,1.4875-13.0521,2.1454-1.5379.2322-2.1623.88-2.15,2.7164.0167,2.4089-.3522,4.821-.574,7.454,2.0638-.4484,4.0149-.9489,5.9891-1.2827,2.7541-.4656,5.5184-.8948,8.2923-1.1637,1.4017-.136,3.963,2.2371,4.357,3.7255.3189,1.2049-.7845,4.271-2.0958,4.7841a18.6992,18.6992,0,0,1-4.69.8326,38.2743,38.2743,0,0,0-14.3568,4.2919,4.314,4.314,0,0,1-5.7448-.9645,5.9893,5.9893,0,0,1-1.1621-5.5205c.7238-3.52,1.3082-7.0761,1.9228-10.623A9.7913,9.7913,0,0,0,532.3362,89.2736Z"/><path d="M450.3113,97.947c4.1-.4416,8.04-.9014,11.9863-1.2674a12.2428,12.2428,0,0,1,3.201.1677c2.4362.4244,4.4551,3.7331,3.6334,6.2773a3.4836,3.4836,0,0,1-2.2935,1.987c-4.8084.8439-9.6555,1.4134-14.4788,2.16-1.6428.2545-3.253.7613-4.8812,1.1364a5.5372,5.5372,0,0,1-6.4412-4.14,6.162,6.162,0,0,1,.0861-2.3948c.57-3.7749,1.1815-7.5422,1.7855-11.3579a9.4768,9.4768,0,0,0-1.1721-.3349c-3.232-.3245-4.5749-1.6046-4.9081-5.0746-.058-.6035.6634-1.5136,1.2352-1.9278a10.0453,10.0453,0,0,1,3.2015-1.6306c1.6122-.428,1.99-1.441,2.1428-3.1379.4229-4.7055.953-9.4087,1.6884-14.0651a2.4761,2.4761,0,0,1,3.0886-1.8863c1.9246.5562,3.4147-.5879,5.1076-.8668,5.087-.8379,10.1632-1.8143,15.276-2.3793,3.1749-.3508,5.8074,2.9887,5.3631,6.2139-.278,2.0185-1.38,2.7722-3.7272,3.0562-5.0046.6055-10,1.3144-14.9854,2.0937-.9913.155-2.5471.5868-2.754,1.2849a28.7579,28.7579,0,0,0-.7289,6.1193,2.1162,2.1162,0,0,0,1.3008.4026c2.3436-.32,4.6691-.8111,7.0156-1.0935,2.0814-.2505,4.1268-.3612,5.8393,1.562,1.19,1.3366,2.06,3.8885,1.4316,5.6223-.579,1.5984-1.9088,1.6847-3.216,1.8482-3.7808.4729-7.5543,1.0178-11.336,1.4814-1.28.1569-1.8915.81-1.957,2.2572C450.6971,92.6576,450.4886,95.2491,450.3113,97.947Z"/><path d="M619.2367,76.8714c2.92,2.8982,5.6085,5.5961,8.3263,8.2579,3.4128,3.3426,6.8962,6.5989,10.26,10,2.48,2.5075,2.9118,4.53,1.8153,7.0515-.7951,1.8283-1.8132,2.1649-3.6451,1.85-1.8561-.3187-2.9631-1.6419-4.2314-2.8988-5.2714-5.2246-10.59-10.39-15.8969-15.5716a4.1384,4.1384,0,0,0-.6481-.4088c-1.2271,6.3139-.1079,13.0288-2.85,18.6188a16.9976,16.9976,0,0,0-2.2594.0159c-1.4219.2245-3.7453-1.5841-3.8046-3.1985a39.6659,39.6659,0,0,1,.0941-6.3261c1.4483-11.6046,1.6321-23.2841,1.8126-34.9633.0229-1.4806.5944-1.8133,1.7667-2.1149,2.072-.533,3.8157-.0651,4.76,1.9636a13.3245,13.3245,0,0,1,.7276,4.4645c.1137,1.5043.0249,3.0273.0249,5.0926,2.1429-2.1018,3.9021-3.8707,5.7048-5.5836,1.944-1.847,3.9049-3.6744,5.9078-5.442.7393-.6524,3.4609-.1853,4.3555.7294a4.0465,4.0465,0,0,1,1.1339,4.3268,9.6552,9.6552,0,0,1-2.1739,3.3285C626.8074,69.67,623.0993,73.1568,619.2367,76.8714Z"/><path d="M577.8834,68.9227c3.1489-2.96,6.0091-5.6934,8.9178-8.3627,1.4628-1.3425,3.0869-2.3416,5.097-1.6115a4.6681,4.6681,0,0,1,1.4336,7.68c-3.1262,2.9644-6.416,5.7181-9.6346,8.5637-.451.3987-.8979.803-1.5231,1.3626,2.6274,3.2422,5.0814,6.4462,7.711,9.4634,2.3781,2.7286,4.9421,5.26,7.4352,7.8655a5.5905,5.5905,0,0,1,.5348,7.6167c-.7052.9817-3.5758,1.3729-4.7068.4456a30.6289,30.6289,0,0,1-3.0015-3.0957c-.4939-.54-.9029-1.1736-1.38-1.7337q-5.5707-6.536-11.1549-13.0578c-.1772-.2072-.3733-.3945-.6946-.7317a6.6717,6.6717,0,0,0-.2676,1.0835c-.2471,4.6762-.42,9.3585-.7471,14.0277-.115,1.6423.0042,3.5408-1.64,4.5487-1.8506,1.1344-5.4066-.5132-5.83-2.8209a20.7868,20.7868,0,0,1-.3024-4.872c.4815-8.4619,1.0542-16.9174,1.5906-25.3755.2133-3.3638.4012-6.73.641-10.091.0264-.3714.25-.9522.4976-1.04,1.3838-.4915,2.7226-1.5327,4.2791-.7366a4.4709,4.4709,0,0,1,2.7321,4.0367C577.9279,64.1484,577.8834,66.2122,577.8834,68.9227Z"/><rect x="57.5546" y="63.5234" width="74.7977" height="7.3689" rx="3.6845" ry="3.6845"/><rect x="57.5546" y="80.2759" width="74.7977" height="7.3689" rx="3.6845" ry="3.6845"/><rect x="57.5546" y="97.0283" width="74.7977" height="7.3689" rx="3.6845" ry="3.6845"/></g></svg>